<svg width="1024" height="1024" viewBox="0 0 1024 1024" fill="none" xmlns="http://www.w3.org/2000/svg">
<g clip-path="url(#clip0_7_34)">
<g filter="url(#filter0_d_7_34)">
<path d="M490.336 722.09C490.336 816.985 413.651 893.913 319.055 893.913C224.459 893.913 147.774 816.985 147.774 722.09C147.774 627.195 224.459 550.267 319.055 550.267C413.651 550.267 490.336 627.195 490.336 722.09Z" fill="#1B2992"/>
<path d="M486.336 722.09C486.336 814.788 411.43 889.913 319.055 889.913C226.68 889.913 151.774 814.788 151.774 722.09C151.774 629.392 226.68 554.267 319.055 554.267C411.43 554.267 486.336 629.392 486.336 722.09Z" stroke="#262E66" stroke-width="8"/>
</g>
<g filter="url(#filter1_d_7_34)">
<path d="M364 635L364.845 640.355C367.248 655.569 366.019 671.136 361.259 685.785V685.785L354.007 686.114C337.855 686.846 321.8 689.012 306.032 692.585L299 694.179L302.249 694.866C320.198 698.662 336.693 707.497 349.8 720.334V720.334C349.895 720.427 349.938 720.562 349.914 720.693L349.862 720.971C347.308 734.829 342.282 748.115 335.024 760.193L329.731 769L337.479 766.665C353.109 761.956 367.558 753.449 379.331 742.141V742.141C379.467 742.01 379.665 741.959 379.847 742.01V742.01C394.985 746.253 408.647 754.617 419.31 766.168L421.925 769L421.391 757.019C420.809 743.935 416.569 731.278 409.154 720.483V720.483L418.348 714.537C428.739 707.816 438.008 699.502 445.815 689.901L448 687.214L445.103 687.575C429.748 689.489 414.112 688.946 398.922 685.994V685.994C398.264 685.866 397.73 685.381 397.544 684.737V684.737C392.294 666.636 381.904 650.446 367.633 638.135L364 635Z" fill="#394499"/>
<path d="M354.12 688.611C339.305 689.283 324.572 691.172 310.07 694.257C325.645 698.813 339.901 707.14 351.549 718.548C352.239 719.223 352.547 720.197 352.372 721.146L352.321 721.424C349.712 735.577 344.579 749.145 337.167 761.48L335.209 764.738L336.758 764.272C352.003 759.678 366.108 751.376 377.599 740.338C378.364 739.603 379.473 739.309 380.522 739.603C395.165 743.707 408.467 751.557 419.127 762.355L418.894 757.13C418.332 744.514 414.244 732.308 407.093 721.899L405.638 719.78L407.796 718.384L416.99 712.438C426.394 706.355 434.859 698.941 442.122 690.429C427.566 691.913 412.809 691.24 398.445 688.448C396.873 688.143 395.592 686.983 395.142 685.434C390.217 668.449 380.646 653.192 367.527 641.374C369.7 656.528 368.371 671.986 363.636 686.558L363.101 688.204L361.372 688.283L354.12 688.611Z" stroke="#152073" stroke-width="5"/>
</g>
<path d="M382.5 709L398.169 706.928C426.742 703.15 452.429 687.582 469 664V664" stroke="#758C8B" stroke-width="20" stroke-linecap="round"/>
<path d="M381.643 866.276C378.892 867.752 375.964 868.871 372.929 869.603L365.517 871.392C335.504 878.637 304.023 876.885 275 866.355V866.355C275 866.355 298 868.855 329 866.355C334.199 865.935 340.038 865.307 345.796 864.614C366.016 862.177 385.051 854.033 401.427 841.926V841.926C409.442 836 416.653 829.059 422.879 821.276L437.5 803V803C429.488 828.639 411.744 850.116 388.077 862.822L381.643 866.276Z" fill="#192687"/>
<g filter="url(#filter2_d_7_34)">
<path d="M860 632.655C860 727.251 783.072 803.936 688.177 803.936C593.282 803.936 516.354 727.251 516.354 632.655C516.354 538.059 593.282 461.374 688.177 461.374C783.072 461.374 860 538.059 860 632.655Z" fill="#1D2B92"/>
<path d="M856 632.655C856 725.03 780.875 799.936 688.177 799.936C595.479 799.936 520.354 725.03 520.354 632.655C520.354 540.28 595.479 465.374 688.177 465.374C780.875 465.374 856 540.28 856 632.655Z" stroke="#262E66" stroke-width="8"/>
</g>
<g filter="url(#filter3_d_7_34)">
<path d="M628.248 521L626.566 529.024C623.179 545.178 623.611 561.899 627.828 577.856L628.248 579.447L634.187 579.717C650.368 580.452 666.451 582.625 682.247 586.212L688 587.518L685.105 588.131C667.734 591.812 651.774 600.374 639.1 612.811V612.811L641.405 621.485C644.155 631.834 648.213 641.79 653.481 651.112L661.188 664.75L651.936 661.164C638.279 655.869 625.804 647.923 615.231 637.784L610.691 633.43V633.43C593.956 641.688 579.459 653.859 568.428 668.911L566.897 671L566.993 669.651C568.405 649.901 573.596 630.605 582.282 612.811V612.811L574.084 607.499C563.697 600.768 554.433 592.444 546.633 582.834L545 580.821L547.76 581.166C562.51 583.008 577.459 582.499 592.05 579.658V579.658C592.716 579.528 593.257 579.042 593.456 578.392L595.391 572.069C600.453 555.523 609.382 540.42 621.44 528.009L628.248 521Z" fill="#394499"/>
<path d="M651.304 652.342L655.57 659.891L652.84 658.833C639.49 653.657 627.296 645.89 616.961 635.98L612.421 631.626L611.156 630.413L609.584 631.188C594.335 638.714 580.904 649.42 570.183 662.558C572.208 645.67 577.052 629.223 584.528 613.907L585.5 611.917L583.641 610.713L575.444 605.401C566.291 599.469 558.029 592.275 550.901 584.035C564.79 585.428 578.814 584.782 592.527 582.112C594.101 581.806 595.377 580.656 595.846 579.123L597.781 572.801C602.728 556.634 611.452 541.877 623.233 529.751L624.033 528.927C620.66 545.332 621.131 562.298 625.411 578.494L625.831 580.086L626.3 581.861L628.135 581.945L634.073 582.214C648.501 582.87 662.851 584.679 676.985 587.625C662.105 592.077 648.491 600.093 637.349 611.026L636.31 612.046L636.683 613.453L638.989 622.127C641.793 632.681 645.932 642.835 651.304 652.342Z" stroke="#152073" stroke-width="5"/>
</g>
<g filter="url(#filter4_d_7_34)">
<path d="M503 525V525C519.478 568.027 558.723 598.777 604.5 604V604" stroke="#758C8B" stroke-width="20" stroke-linecap="round"/>
</g>
<path d="M787.134 753.094C784.897 755.272 782.39 757.154 779.675 758.695L773.043 762.458C746.19 777.694 715.445 784.687 684.644 782.565V782.565C684.644 782.565 707.442 778.629 736.552 767.681C741.434 765.844 746.874 763.631 752.218 761.377C770.982 753.462 787.035 740.386 799.44 724.235V724.235C805.511 716.33 810.529 707.669 814.369 698.471L823.386 676.874V676.874C822.751 703.728 811.615 729.264 792.366 748.001L787.134 753.094Z" fill="#192687"/>
<g filter="url(#filter5_d_7_34)">
<path d="M765.687 852.177C765.687 947.072 689.002 1024 594.406 1024C499.81 1024 423.125 947.072 423.125 852.177C423.125 757.282 499.81 680.354 594.406 680.354C689.002 680.354 765.687 757.282 765.687 852.177Z" fill="#1F30AD"/>
<path d="M761.687 852.177C761.687 944.875 686.781 1020 594.406 1020C502.031 1020 427.125 944.875 427.125 852.177C427.125 759.479 502.031 684.354 594.406 684.354C686.781 684.354 761.687 759.479 761.687 852.177Z" stroke="#152073" stroke-width="8"/>
</g>
<g filter="url(#filter6_d_7_34)">
<path d="M541.145 717L538.64 728.958C535.26 745.097 535.691 761.801 539.9 777.744L541.145 782.461L550.657 782.893C566.853 783.63 582.952 785.807 598.762 789.401L608 791.5L604.774 792.184C585.329 796.309 567.467 805.899 553.286 819.828V819.828L556.365 831.424C559.11 841.766 563.162 851.716 568.422 861.034L578 878L565.196 873.031C551.534 867.73 539.057 859.775 528.485 849.627L521.5 842.922V842.922C502.776 852.171 486.559 865.798 474.222 882.648L472.5 885L472.683 882.438C474.213 861.012 479.839 840.077 489.255 820.77L489.714 819.828L478.675 812.668C468.29 805.931 459.029 797.602 451.233 787.987L448 784L451.746 784.468C467.813 786.477 484.098 785.922 499.991 782.824L501.855 782.461L505.308 771.166C510.363 754.626 519.282 739.527 531.328 727.116L541.145 717Z" fill="#5161DB"/>
<path d="M566.245 862.263L572.385 873.14L566.1 870.7C552.746 865.518 540.55 857.743 530.216 847.824L523.231 841.118L521.966 839.904L520.393 840.681C503.038 849.253 487.795 861.517 475.718 876.585C477.776 857.586 483.112 839.07 491.502 821.866L491.961 820.924L492.931 818.935L491.074 817.731L480.036 810.57C470.166 804.168 461.334 796.297 453.844 787.231C469.391 788.929 485.11 788.272 500.47 785.278L502.333 784.915L503.807 784.628L504.246 783.192L507.698 771.897C512.638 755.736 521.352 740.983 533.122 728.857L536.929 724.934L536.193 728.446C532.733 744.965 533.175 762.063 537.483 778.382L538.728 783.099L539.197 784.875L541.031 784.958L550.543 785.391C566.165 786.101 581.694 788.164 596.957 791.557C579.885 796.455 564.262 805.543 551.534 818.044L550.497 819.064L550.87 820.469L553.949 832.065C556.749 842.613 560.881 852.76 566.245 862.263Z" stroke="#1B2992" stroke-width="5"/>
</g>
<path d="M639.386 729.628C648.101 734.013 654.929 741.41 658.604 750.448V750.448C666.508 769.885 666.263 791.685 657.925 810.94L649.957 829.338L649.549 798.7C649.48 793.525 648.573 788.397 646.864 783.513L645.543 779.739C639.313 761.937 627.541 746.6 611.955 735.979V735.979C607.639 733.037 603.046 730.524 598.241 728.475L572 717.289L598.082 716.821C608.136 716.64 618.083 718.908 627.065 723.428L639.386 729.628Z" fill="#2133BA"/>
<path d="M436.543 269.649L443.888 274.816C463.71 288.761 486.408 298.081 510.311 302.089L531.543 305.649" stroke="#758C8B" stroke-width="20" stroke-linecap="round"/>
<path d="M515.5 807.5C488.147 801.564 443.112 746.013 461.355 691.307C484.159 622.925 515.012 504.933 502.268 447.948C489.525 390.963 413.064 321.241 437.209 221.35C461.355 121.458 506.293 67.8255 475.44 56.4286C450.758 47.311 430.279 63.8031 423.125 73.1888" stroke="#95B3B1" stroke-width="20" stroke-linecap="round"/>
<g filter="url(#filter7_d_7_34)">
<path d="M493.588 443.487C493.588 538.382 416.903 615.31 322.307 615.31C227.711 615.31 151.026 538.382 151.026 443.487C151.026 348.592 227.711 271.664 322.307 271.664C416.903 271.664 493.588 348.592 493.588 443.487Z" fill="#23329F"/>
<path d="M489.588 443.487C489.588 536.185 414.682 611.31 322.307 611.31C229.932 611.31 155.026 536.185 155.026 443.487C155.026 350.789 229.932 275.664 322.307 275.664C414.682 275.664 489.588 350.789 489.588 443.487Z" stroke="#262E66" stroke-width="8"/>
</g>
<g filter="url(#filter8_d_7_34)">
<path d="M236.768 579.248L236.131 574.974C234.691 565.309 235.431 555.445 238.297 546.103V546.103L238.734 546.091C252.76 545.721 266.701 543.786 280.297 540.321V540.321L274.173 538.31C264.711 535.203 255.963 530.245 248.436 523.723V523.723C248.35 523.649 248.312 523.534 248.336 523.423L248.408 523.085C250.327 514.13 253.328 505.442 257.345 497.212L259.839 492.103L254.57 493.203C243.952 495.421 234.16 500.74 226.49 508.41V508.41C226.374 508.526 226.199 508.559 226.05 508.492V508.492C216.692 504.297 208.509 497.865 202.221 489.764L198.604 485.103L199.2 497.88C199.606 506.577 202.395 514.994 207.263 522.212V522.212L201.429 525.912C194.436 530.347 189.113 536.98 186.297 544.768V544.768V544.768C194.412 542.992 202.808 542.93 210.949 544.585L213.992 545.204C214.349 545.277 214.637 545.547 214.735 545.898V545.898C218.118 557.951 224.961 568.884 234.369 577.142L236.768 579.248Z" fill="#394499"/>
<path d="M238.668 543.592C249.559 543.305 260.398 542.061 271.06 539.878C262.178 536.644 253.954 531.812 246.799 525.613C246.024 524.941 245.676 523.901 245.891 522.899L245.964 522.561C247.925 513.408 250.992 504.528 255.098 496.116L255.353 495.594L255.081 495.651C244.943 497.769 235.586 502.849 228.257 510.178C227.415 511.021 226.131 511.268 225.027 510.773C215.89 506.677 207.829 500.531 201.467 492.821L201.697 497.764C202.081 506.002 204.724 513.976 209.335 520.814L210.773 522.946L208.602 524.323L202.768 528.023C197.518 531.353 193.277 536.009 190.452 541.487C197.425 540.512 204.525 540.728 211.447 542.135L214.49 542.754C215.777 543.016 216.793 543.98 217.142 545.222C220.063 555.628 225.666 565.166 233.323 572.749C232.312 563.551 233.187 554.234 235.907 545.37L236.434 543.651L238.231 543.604L238.668 543.592Z" stroke="#152073" stroke-width="5"/>
</g>
<path d="M373.93 314.143C388.773 317.311 401.898 325.907 410.735 338.247V338.247C431.871 367.761 441.692 403.891 438.405 440.044L437.5 450C437.5 450 420.163 408.815 407.5 381V381C394.21 351.808 363.71 335.381 332.315 328.81L316.5 325.5L264 319.067L273.308 316.545C305.7 307.767 339.719 306.842 372.54 313.847L373.93 314.143Z" fill="#2635AB"/>
<g filter="url(#filter9_d_7_34)">
<path d="M813.385 378.986C813.385 473.582 736.457 550.267 641.562 550.267C546.667 550.267 469.739 473.582 469.739 378.986C469.739 284.39 546.667 207.704 641.562 207.704C736.457 207.704 813.385 284.39 813.385 378.986Z" fill="#2534A3"/>
<path d="M809.385 378.986C809.385 471.36 734.26 546.267 641.562 546.267C548.864 546.267 473.739 471.36 473.739 378.986C473.739 286.611 548.864 211.704 641.562 211.704C734.26 211.704 809.385 286.611 809.385 378.986Z" stroke="#262E66" stroke-width="8"/>
</g>
<g filter="url(#filter10_d_7_34)">
<path d="M751.735 485.896L747.254 484.263C737.12 480.57 727.94 474.656 720.388 466.955V466.955L720.606 466.525C727.635 452.724 733.1 438.181 736.9 423.167V423.167L731.724 428.049C723.726 435.591 714.308 441.466 704.018 445.332V445.332C703.901 445.376 703.769 445.353 703.674 445.271L703.384 445.023C695.708 438.445 688.861 430.958 682.993 422.727L679.35 417.616L677.643 423.307C674.202 434.775 674.204 447.076 677.604 458.556V458.556C677.656 458.729 677.595 458.917 677.452 459.026V459.026C668.454 465.895 657.904 470.445 646.734 472.277L640.307 473.331L653.016 479.483C661.666 483.67 671.3 485.398 680.866 484.477V484.477L681.383 492.085C682.002 501.205 685.632 509.862 691.704 516.696V516.696V516.696C694.256 507.888 698.618 499.71 704.511 492.685L706.714 490.059C706.973 489.751 707.386 489.614 707.779 489.704V489.704C721.252 492.77 735.463 491.891 748.429 487.114L751.735 485.896Z" fill="#394499"/>
<path d="M718.379 465.391C723.983 454.386 728.581 442.904 732.121 431.085C724.173 438.271 714.938 443.9 704.898 447.672C703.927 448.037 702.835 447.845 702.047 447.17L701.757 446.921C693.927 440.212 686.943 432.574 680.957 424.178L680.278 423.224L680.037 424.025C676.737 435.025 676.738 446.829 680.001 457.846C680.345 459.005 679.944 460.269 678.969 461.013C670.006 467.854 659.559 472.477 648.482 474.511L654.105 477.233C662.342 481.22 671.517 482.865 680.627 481.989L683.186 481.742L683.36 484.308L683.877 491.915C684.356 498.976 686.757 505.741 690.779 511.495C693.501 504.068 697.496 497.157 702.596 491.079L704.799 488.453C705.667 487.418 707.038 486.971 708.334 487.266C720.249 489.978 732.761 489.492 744.393 485.848C734.702 481.998 725.915 476.162 718.603 468.706L717.344 467.422L718.16 465.821L718.379 465.391Z" stroke="#152073" stroke-width="5"/>
</g>
<path d="M521.534 355.973C518.52 341.098 521.169 325.634 528.962 312.609V312.609C547.6 281.457 576.818 258.044 611.283 246.642L620.774 243.503C620.774 243.503 589.918 275.824 569.459 298.528V298.528C547.987 322.356 545.085 356.876 551.578 388.288L554.848 404.111L569.883 454.822L563.859 447.292C542.892 421.087 528.479 390.258 521.816 357.366L521.534 355.973Z" fill="#2635AB"/>
<g filter="url(#filter11_d_7_34)">
<path d="M513.756 37.3986C530.802 20.3501 553.065 9.46021 576.989 6.48289L582.348 5.81597C587.467 5.17889 592.638 5.06368 597.78 5.47213L611.042 6.52546C630.471 8.06861 649.436 13.2546 666.947 21.8128L671.929 24.2476C678.232 27.328 683.965 31.4574 688.884 36.4593L699.315 47.0661C709.559 57.4832 717.12 70.233 721.346 84.2187V84.2187C729.374 110.786 720.683 139.576 699.296 157.264L690.94 164.175C671.813 179.993 646.123 185.375 622.256 178.564L605.063 173.658C571.616 164.113 536.46 162.155 502.161 167.928L500.563 168.197C492.886 169.488 485.576 172.409 479.122 176.762L473.396 180.624C467.836 184.374 462.789 188.832 458.381 193.885L446.027 208.046V208.046C444.117 144.281 468.649 82.511 513.756 37.3986V37.3986Z" fill="#277824"/>
<path d="M623.354 174.718L606.16 169.811C572.141 160.103 536.384 158.112 501.497 163.983L499.899 164.252C491.659 165.639 483.812 168.773 476.885 173.446L471.159 177.308C465.312 181.252 460.003 185.941 455.366 191.256L449.953 197.462C450.901 138.543 474.729 82.0876 516.584 40.2268C533.002 23.8073 554.443 13.3195 577.483 10.4523L582.842 9.78535C587.692 9.18174 592.591 9.07258 597.464 9.45957L610.725 10.5129C629.654 12.0163 648.131 17.0688 665.191 25.4066L670.172 27.8413C676.068 30.7227 681.431 34.5852 686.032 39.2639L696.463 49.8707C706.253 59.8259 713.478 72.0103 717.517 85.3758C725.079 110.401 716.893 137.52 696.747 154.181L688.39 161.093C670.28 176.071 645.953 181.167 623.354 174.718Z" stroke="#236E21" stroke-width="8"/>
</g>
<g filter="url(#filter12_d_7_34)">
<path d="M622.847 178.643C646.552 183.035 668.136 195.214 684.141 213.244L687.726 217.283C691.15 221.141 694.174 225.337 696.75 229.806L703.394 241.333C713.127 258.219 719.595 276.786 722.46 296.064L723.275 301.549C724.306 308.488 724.151 315.552 722.815 322.439L719.981 337.043C717.199 351.386 710.974 364.838 701.841 376.243V376.243C684.494 397.907 655.845 407.052 629.154 399.444L618.725 396.472C594.856 389.669 575.869 371.545 567.964 348.018L562.269 331.069C551.191 298.099 532.892 268.018 508.707 243.02L507.58 241.855C502.168 236.261 495.62 231.89 488.377 229.037L481.951 226.505C475.711 224.048 469.179 222.413 462.517 221.642L443.849 219.482V219.482C495.319 181.791 560.12 167.022 622.847 178.643V178.643Z" fill="#318A2E"/>
<path d="M571.755 346.744L566.061 329.795C554.793 296.261 536.18 265.664 511.582 240.238L510.455 239.074C504.645 233.069 497.617 228.377 489.843 225.315L483.417 222.784C476.854 220.199 469.983 218.479 462.977 217.668L454.796 216.722C503.89 184.131 563.913 171.792 622.118 182.576C644.949 186.806 665.736 198.536 681.149 215.899L684.734 219.938C687.979 223.594 690.844 227.569 693.285 231.804L699.928 243.33C709.411 259.781 715.712 277.87 718.503 296.652L719.319 302.137C720.283 308.628 720.138 315.235 718.888 321.677L716.055 336.281C713.395 349.988 707.446 362.844 698.719 373.743C682.379 394.149 655.392 402.763 630.251 395.598L619.822 392.625C597.22 386.183 579.241 369.022 571.755 346.744Z" stroke="#2D802A" stroke-width="8"/>
</g>
<g filter="url(#filter13_d_7_34)">
<path d="M263.232 140.364C239.124 140.152 215.613 147.989 196.462 162.634L192.172 165.915C188.074 169.049 184.306 172.591 180.924 176.486L172.203 186.533C159.427 201.252 149.535 218.243 143.044 236.621L141.197 241.849C138.861 248.464 137.666 255.428 137.663 262.443L137.658 277.32C137.653 291.93 141.197 306.323 147.985 319.261V319.261C160.88 343.837 187.258 358.28 214.909 355.905L225.714 354.978C250.443 352.854 272.539 338.686 284.788 317.1L293.612 301.549C310.778 271.298 334.481 245.261 362.991 225.337L364.319 224.409C370.7 219.95 377.961 216.909 385.615 215.49L392.407 214.232C399.001 213.01 405.725 212.651 412.411 213.166L431.148 214.607V214.607C387.816 167.788 327.024 140.925 263.232 140.364V140.364Z" fill="#2E822B"/>
<path d="M281.309 315.125L290.134 299.575C307.593 268.806 331.702 242.323 360.7 222.059L362.028 221.13C368.877 216.344 376.671 213.08 384.886 211.557L391.678 210.299C398.613 209.013 405.686 208.636 412.718 209.177L420.929 209.809C378.956 168.45 322.391 144.885 263.197 144.364C239.979 144.16 217.335 151.708 198.892 165.812L194.602 169.092C190.719 172.061 187.149 175.417 183.945 179.108L175.224 189.155C162.777 203.495 153.14 220.049 146.816 237.953L144.969 243.182C142.783 249.369 141.666 255.883 141.663 262.445L141.658 277.321C141.653 291.284 145.04 305.038 151.527 317.402C163.673 340.552 188.52 354.157 214.567 351.92L225.372 350.992C248.788 348.981 269.71 335.566 281.309 315.125Z" stroke="#2B7828" stroke-width="8"/>
</g>
<path d="M244.39 165.626C254.683 159.002 266.884 155.98 279.079 157.034L280.676 157.172C299.265 158.778 317.422 163.663 334.307 171.601L366 186.5L314.671 178.58C304.534 177.015 294.267 176.457 284.019 176.912V176.912C276.972 177.225 270 178.491 263.294 180.677L250.887 184.721L219 199.494L221.412 193.47C225.994 182.028 234.025 172.296 244.39 165.626V165.626Z" fill="#328C2F"/>
<path d="M635.247 204.94C627.241 197.058 616.856 192.04 605.705 190.666L598.55 189.784C568.15 186.039 537.295 189.69 508.609 200.427L500.958 203.291L539.051 201.227C556.832 200.264 574.662 201.724 592.05 205.567V205.567C601.392 207.633 610.383 211.049 618.739 215.709L622.865 218.01C626.389 219.975 629.54 222.545 632.173 225.602L651.942 248.548L651.482 240.722C650.686 227.196 644.901 214.446 635.247 204.94V204.94Z" fill="#369633"/>
<path d="M592.874 24.7376C586.048 23.7107 579.084 24.1176 572.424 25.9323V25.9323C541.427 34.3785 514.621 53.9326 497.112 80.8691L495.035 84.0654L505.361 76.501C524.217 62.6886 545.524 52.5811 568.15 46.7152V46.7152C577.671 44.2467 587.525 43.3114 597.341 43.9447L604.844 44.4288C608.55 44.6679 612.198 45.4676 615.664 46.8008L645.55 58.2952V58.2952C637.98 41.193 622.192 29.1482 603.697 26.3658L592.874 24.7376Z" fill="#2E822B"/>
</g>
<defs>
<filter id="filter0_d_7_34" x="143.774" y="550.267" width="350.562" height="351.646" filterUnits="userSpaceOnUse" color-interpolation-filters="sRGB">
<feFlood flood-opacity="0" result="BackgroundImageFix"/>
<feColorMatrix in="SourceAlpha" type="matrix" values="0 0 0 0 0 0 0 0 0 0 0 0 0 0 0 0 0 0 127 0" result="hardAlpha"/>
<feOffset dy="4"/>
<feGaussianBlur stdDeviation="2"/>
<feComposite in2="hardAlpha" operator="out"/>
<feColorMatrix type="matrix" values="0 0 0 0 0 0 0 0 0 0 0 0 0 0 0 0 0 0 0.25 0"/>
<feBlend mode="normal" in2="BackgroundImageFix" result="effect1_dropShadow_7_34"/>
<feBlend mode="normal" in="SourceGraphic" in2="effect1_dropShadow_7_34" result="shape"/>
</filter>
<filter id="filter1_d_7_34" x="295" y="635" width="157" height="142" filterUnits="userSpaceOnUse" color-interpolation-filters="sRGB">
<feFlood flood-opacity="0" result="BackgroundImageFix"/>
<feColorMatrix in="SourceAlpha" type="matrix" values="0 0 0 0 0 0 0 0 0 0 0 0 0 0 0 0 0 0 127 0" result="hardAlpha"/>
<feOffset dy="4"/>
<feGaussianBlur stdDeviation="2"/>
<feComposite in2="hardAlpha" operator="out"/>
<feColorMatrix type="matrix" values="0 0 0 0 0 0 0 0 0 0 0 0 0 0 0 0 0 0 0.25 0"/>
<feBlend mode="normal" in2="BackgroundImageFix" result="effect1_dropShadow_7_34"/>
<feBlend mode="normal" in="SourceGraphic" in2="effect1_dropShadow_7_34" result="shape"/>
</filter>
<filter id="filter2_d_7_34" x="512.354" y="461.374" width="351.646" height="350.562" filterUnits="userSpaceOnUse" color-interpolation-filters="sRGB">
<feFlood flood-opacity="0" result="BackgroundImageFix"/>
<feColorMatrix in="SourceAlpha" type="matrix" values="0 0 0 0 0 0 0 0 0 0 0 0 0 0 0 0 0 0 127 0" result="hardAlpha"/>
<feOffset dy="4"/>
<feGaussianBlur stdDeviation="2"/>
<feComposite in2="hardAlpha" operator="out"/>
<feColorMatrix type="matrix" values="0 0 0 0 0 0 0 0 0 0 0 0 0 0 0 0 0 0 0.25 0"/>
<feBlend mode="normal" in2="BackgroundImageFix" result="effect1_dropShadow_7_34"/>
<feBlend mode="normal" in="SourceGraphic" in2="effect1_dropShadow_7_34" result="shape"/>
</filter>
<filter id="filter3_d_7_34" x="541" y="521" width="151" height="158" filterUnits="userSpaceOnUse" color-interpolation-filters="sRGB">
<feFlood flood-opacity="0" result="BackgroundImageFix"/>
<feColorMatrix in="SourceAlpha" type="matrix" values="0 0 0 0 0 0 0 0 0 0 0 0 0 0 0 0 0 0 127 0" result="hardAlpha"/>
<feOffset dy="4"/>
<feGaussianBlur stdDeviation="2"/>
<feComposite in2="hardAlpha" operator="out"/>
<feColorMatrix type="matrix" values="0 0 0 0 0 0 0 0 0 0 0 0 0 0 0 0 0 0 0.25 0"/>
<feBlend mode="normal" in2="BackgroundImageFix" result="effect1_dropShadow_7_34"/>
<feBlend mode="normal" in="SourceGraphic" in2="effect1_dropShadow_7_34" result="shape"/>
</filter>
<filter id="filter4_d_7_34" x="488.997" y="514.997" width="129.504" height="107.004" filterUnits="userSpaceOnUse" color-interpolation-filters="sRGB">
<feFlood flood-opacity="0" result="BackgroundImageFix"/>
<feColorMatrix in="SourceAlpha" type="matrix" values="0 0 0 0 0 0 0 0 0 0 0 0 0 0 0 0 0 0 127 0" result="hardAlpha"/>
<feOffset dy="4"/>
<feGaussianBlur stdDeviation="2"/>
<feComposite in2="hardAlpha" operator="out"/>
<feColorMatrix type="matrix" values="0 0 0 0 0 0 0 0 0 0 0 0 0 0 0 0 0 0 0.25 0"/>
<feBlend mode="normal" in2="BackgroundImageFix" result="effect1_dropShadow_7_34"/>
<feBlend mode="normal" in="SourceGraphic" in2="effect1_dropShadow_7_34" result="shape"/>
</filter>
<filter id="filter5_d_7_34" x="419.125" y="680.354" width="350.562" height="351.646" filterUnits="userSpaceOnUse" color-interpolation-filters="sRGB">
<feFlood flood-opacity="0" result="BackgroundImageFix"/>
<feColorMatrix in="SourceAlpha" type="matrix" values="0 0 0 0 0 0 0 0 0 0 0 0 0 0 0 0 0 0 127 0" result="hardAlpha"/>
<feOffset dy="4"/>
<feGaussianBlur stdDeviation="2"/>
<feComposite in2="hardAlpha" operator="out"/>
<feColorMatrix type="matrix" values="0 0 0 0 0 0 0 0 0 0 0 0 0 0 0 0 0 0 0.25 0"/>
<feBlend mode="normal" in2="BackgroundImageFix" result="effect1_dropShadow_7_34"/>
<feBlend mode="normal" in="SourceGraphic" in2="effect1_dropShadow_7_34" result="shape"/>
</filter>
<filter id="filter6_d_7_34" x="444" y="717" width="168" height="176" filterUnits="userSpaceOnUse" color-interpolation-filters="sRGB">
<feFlood flood-opacity="0" result="BackgroundImageFix"/>
<feColorMatrix in="SourceAlpha" type="matrix" values="0 0 0 0 0 0 0 0 0 0 0 0 0 0 0 0 0 0 127 0" result="hardAlpha"/>
<feOffset dy="4"/>
<feGaussianBlur stdDeviation="2"/>
<feComposite in2="hardAlpha" operator="out"/>
<feColorMatrix type="matrix" values="0 0 0 0 0 0 0 0 0 0 0 0 0 0 0 0 0 0 0.25 0"/>
<feBlend mode="normal" in2="BackgroundImageFix" result="effect1_dropShadow_7_34"/>
<feBlend mode="normal" in="SourceGraphic" in2="effect1_dropShadow_7_34" result="shape"/>
</filter>
<filter id="filter7_d_7_34" x="147.026" y="271.664" width="350.562" height="351.646" filterUnits="userSpaceOnUse" color-interpolation-filters="sRGB">
<feFlood flood-opacity="0" result="BackgroundImageFix"/>
<feColorMatrix in="SourceAlpha" type="matrix" values="0 0 0 0 0 0 0 0 0 0 0 0 0 0 0 0 0 0 127 0" result="hardAlpha"/>
<feOffset dy="4"/>
<feGaussianBlur stdDeviation="2"/>
<feComposite in2="hardAlpha" operator="out"/>
<feColorMatrix type="matrix" values="0 0 0 0 0 0 0 0 0 0 0 0 0 0 0 0 0 0 0.25 0"/>
<feBlend mode="normal" in2="BackgroundImageFix" result="effect1_dropShadow_7_34"/>
<feBlend mode="normal" in="SourceGraphic" in2="effect1_dropShadow_7_34" result="shape"/>
</filter>
<filter id="filter8_d_7_34" x="182.297" y="485.103" width="102" height="102.145" filterUnits="userSpaceOnUse" color-interpolation-filters="sRGB">
<feFlood flood-opacity="0" result="BackgroundImageFix"/>
<feColorMatrix in="SourceAlpha" type="matrix" values="0 0 0 0 0 0 0 0 0 0 0 0 0 0 0 0 0 0 127 0" result="hardAlpha"/>
<feOffset dy="4"/>
<feGaussianBlur stdDeviation="2"/>
<feComposite in2="hardAlpha" operator="out"/>
<feColorMatrix type="matrix" values="0 0 0 0 0 0 0 0 0 0 0 0 0 0 0 0 0 0 0.25 0"/>
<feBlend mode="normal" in2="BackgroundImageFix" result="effect1_dropShadow_7_34"/>
<feBlend mode="normal" in="SourceGraphic" in2="effect1_dropShadow_7_34" result="shape"/>
</filter>
<filter id="filter9_d_7_34" x="465.739" y="207.704" width="351.646" height="350.562" filterUnits="userSpaceOnUse" color-interpolation-filters="sRGB">
<feFlood flood-opacity="0" result="BackgroundImageFix"/>
<feColorMatrix in="SourceAlpha" type="matrix" values="0 0 0 0 0 0 0 0 0 0 0 0 0 0 0 0 0 0 127 0" result="hardAlpha"/>
<feOffset dy="4"/>
<feGaussianBlur stdDeviation="2"/>
<feComposite in2="hardAlpha" operator="out"/>
<feColorMatrix type="matrix" values="0 0 0 0 0 0 0 0 0 0 0 0 0 0 0 0 0 0 0.25 0"/>
<feBlend mode="normal" in2="BackgroundImageFix" result="effect1_dropShadow_7_34"/>
<feBlend mode="normal" in="SourceGraphic" in2="effect1_dropShadow_7_34" result="shape"/>
</filter>
<filter id="filter10_d_7_34" x="636.307" y="417.616" width="119.427" height="107.079" filterUnits="userSpaceOnUse" color-interpolation-filters="sRGB">
<feFlood flood-opacity="0" result="BackgroundImageFix"/>
<feColorMatrix in="SourceAlpha" type="matrix" values="0 0 0 0 0 0 0 0 0 0 0 0 0 0 0 0 0 0 127 0" result="hardAlpha"/>
<feOffset dy="4"/>
<feGaussianBlur stdDeviation="2"/>
<feComposite in2="hardAlpha" operator="out"/>
<feColorMatrix type="matrix" values="0 0 0 0 0 0 0 0 0 0 0 0 0 0 0 0 0 0 0.25 0"/>
<feBlend mode="normal" in2="BackgroundImageFix" result="effect1_dropShadow_7_34"/>
<feBlend mode="normal" in="SourceGraphic" in2="effect1_dropShadow_7_34" result="shape"/>
</filter>
<filter id="filter11_d_7_34" x="441.923" y="5.23308" width="286.372" height="210.813" filterUnits="userSpaceOnUse" color-interpolation-filters="sRGB">
<feFlood flood-opacity="0" result="BackgroundImageFix"/>
<feColorMatrix in="SourceAlpha" type="matrix" values="0 0 0 0 0 0 0 0 0 0 0 0 0 0 0 0 0 0 127 0" result="hardAlpha"/>
<feOffset dy="4"/>
<feGaussianBlur stdDeviation="2"/>
<feComposite in2="hardAlpha" operator="out"/>
<feColorMatrix type="matrix" values="0 0 0 0 0 0 0 0 0 0 0 0 0 0 0 0 0 0 0.25 0"/>
<feBlend mode="normal" in2="BackgroundImageFix" result="effect1_dropShadow_7_34"/>
<feBlend mode="normal" in="SourceGraphic" in2="effect1_dropShadow_7_34" result="shape"/>
</filter>
<filter id="filter12_d_7_34" x="439.849" y="174.767" width="288.098" height="235.32" filterUnits="userSpaceOnUse" color-interpolation-filters="sRGB">
<feFlood flood-opacity="0" result="BackgroundImageFix"/>
<feColorMatrix in="SourceAlpha" type="matrix" values="0 0 0 0 0 0 0 0 0 0 0 0 0 0 0 0 0 0 127 0" result="hardAlpha"/>
<feOffset dy="4"/>
<feGaussianBlur stdDeviation="2"/>
<feComposite in2="hardAlpha" operator="out"/>
<feColorMatrix type="matrix" values="0 0 0 0 0 0 0 0 0 0 0 0 0 0 0 0 0 0 0.25 0"/>
<feBlend mode="normal" in2="BackgroundImageFix" result="effect1_dropShadow_7_34"/>
<feBlend mode="normal" in="SourceGraphic" in2="effect1_dropShadow_7_34" result="shape"/>
</filter>
<filter id="filter13_d_7_34" x="133.658" y="140.36" width="301.49" height="223.799" filterUnits="userSpaceOnUse" color-interpolation-filters="sRGB">
<feFlood flood-opacity="0" result="BackgroundImageFix"/>
<feColorMatrix in="SourceAlpha" type="matrix" values="0 0 0 0 0 0 0 0 0 0 0 0 0 0 0 0 0 0 127 0" result="hardAlpha"/>
<feOffset dy="4"/>
<feGaussianBlur stdDeviation="2"/>
<feComposite in2="hardAlpha" operator="out"/>
<feColorMatrix type="matrix" values="0 0 0 0 0 0 0 0 0 0 0 0 0 0 0 0 0 0 0.25 0"/>
<feBlend mode="normal" in2="BackgroundImageFix" result="effect1_dropShadow_7_34"/>
<feBlend mode="normal" in="SourceGraphic" in2="effect1_dropShadow_7_34" result="shape"/>
</filter>
<clipPath id="clip0_7_34">
<rect width="1024" height="1024" fill="white"/>
</clipPath>
</defs>
</svg>
