<?xml version="1.0" standalone="no"?>
<!DOCTYPE svg PUBLIC "-//W3C//DTD SVG 20010904//EN"
 "http://www.w3.org/TR/2001/REC-SVG-20010904/DTD/svg10.dtd">
<svg version="1.0" xmlns="http://www.w3.org/2000/svg"
 width="1024.000000pt" height="1024.000000pt" viewBox="0 0 1024.000000 1024.000000"
 preserveAspectRatio="xMidYMid meet">
<metadata>
Created by potrace 1.14, written by Peter Selinger 2001-2017
</metadata>
<g transform="translate(0.000000,1024.000000) scale(0.100000,-0.100000)"
fill="#000000" stroke="none">
<path d="M5755 10173 c-191 -28 -414 -125 -535 -232 -85 -76 -180 -175 -244
-254 l-38 -48 -19 30 c-24 40 -89 86 -149 106 -167 55 -351 19 -507 -99 -112
-85 -150 -153 -119 -213 8 -17 13 -33 11 -37 -3 -3 -2 -4 2 -1 3 3 15 -3 26
-12 11 -10 17 -12 13 -6 -5 10 -1 11 16 4 13 -5 33 -5 46 0 12 5 22 6 22 3 0
-3 11 7 25 22 14 15 25 31 25 36 0 5 4 7 9 4 5 -3 11 1 14 9 8 20 87 76 98 69
5 -3 9 -1 9 5 0 6 24 17 53 26 56 16 130 18 120 2 -3 -5 4 -4 14 2 11 6 23 8
25 5 3 -2 16 -7 28 -9 31 -6 37 -14 20 -25 -9 -6 -10 -10 -3 -10 6 0 15 5 19
11 12 21 22 -12 19 -65 -3 -51 -69 -271 -86 -290 -5 -6 -9 -16 -9 -23 0 -7 -9
-32 -19 -56 -20 -44 -85 -210 -141 -357 -18 -47 -56 -155 -85 -240 -49 -148
-68 -206 -102 -330 -8 -30 -17 -61 -19 -69 -3 -9 -20 2 -53 35 -69 69 -159
148 -226 196 -5 4 -23 18 -40 31 -63 48 -324 207 -341 207 -2 0 -38 16 -81 35
-131 61 -333 127 -463 151 -14 2 -45 8 -70 14 -172 35 -463 45 -585 21 -211
-43 -410 -142 -557 -277 -129 -119 -292 -332 -367 -481 -33 -67 -91 -207 -96
-236 -2 -9 -7 -22 -10 -27 -28 -45 -40 -319 -20 -462 4 -32 7 -61 7 -65 0 -5
4 -14 10 -20 8 -9 7 -13 -3 -13 -11 0 -11 -2 -1 -8 13 -9 23 -41 26 -79 0 -11
5 -19 10 -15 5 3 6 -2 3 -12 -4 -9 -3 -15 1 -12 4 2 18 -20 31 -50 13 -30 28
-54 33 -54 5 0 6 -4 3 -10 -3 -5 -1 -10 5 -10 6 0 9 -4 6 -9 -3 -5 1 -12 10
-15 8 -3 13 -10 10 -15 -3 -5 1 -12 10 -15 8 -3 12 -11 9 -16 -4 -6 -2 -9 3
-8 5 2 26 -14 48 -36 21 -21 49 -45 61 -53 13 -8 20 -19 17 -24 -3 -5 -2 -9 3
-8 18 3 30 -2 53 -23 14 -13 26 -22 27 -20 2 1 7 2 13 2 5 0 -4 -23 -21 -52
-98 -166 -189 -396 -213 -538 -3 -19 -8 -46 -11 -60 -3 -14 -8 -45 -12 -70 -9
-61 -11 -444 -3 -450 4 -3 10 -30 13 -60 4 -30 9 -66 13 -80 3 -14 7 -32 9
-40 1 -8 5 -22 8 -30 8 -21 28 -89 31 -103 2 -7 8 -25 14 -40 7 -16 12 -31 12
-33 0 -6 29 -72 71 -161 17 -35 30 -66 30 -70 0 -5 7 -12 15 -16 8 -4 14 -14
14 -22 0 -7 6 -20 13 -27 27 -28 76 -111 71 -120 -3 -4 0 -7 8 -6 7 2 12 -5
12 -14 -1 -10 2 -15 7 -13 4 3 16 -6 26 -21 10 -14 36 -43 58 -65 21 -21 35
-39 30 -40 -6 0 1 -5 14 -10 15 -6 21 -14 17 -25 -3 -8 -2 -12 4 -9 5 3 35
-19 66 -50 31 -30 59 -55 63 -55 3 -1 18 -11 34 -23 l27 -23 -66 -53 c-463
-371 -707 -939 -649 -1511 5 -47 9 -97 10 -111 1 -14 4 -30 8 -35 3 -6 8 -28
11 -49 3 -22 14 -71 25 -110 12 -38 19 -76 16 -83 -3 -7 -1 -11 4 -8 6 4 34
-59 36 -84 2 -11 98 -205 105 -210 4 -3 13 -20 21 -38 8 -17 18 -32 23 -32 4
0 5 -8 2 -17 -4 -10 -4 -14 0 -11 10 11 46 -40 38 -53 -4 -8 -3 -9 5 -5 6 4
14 0 18 -11 4 -10 11 -21 17 -25 6 -4 5 -13 -4 -25 -12 -15 -12 -16 0 -6 17
16 30 17 30 2 0 -6 13 -24 30 -39 16 -15 30 -36 30 -46 0 -9 3 -15 6 -12 9 10
105 -85 100 -99 -3 -7 1 -10 8 -7 8 3 22 -5 33 -18 10 -13 28 -28 38 -35 11
-6 18 -17 17 -25 -2 -7 0 -10 3 -6 10 9 47 -10 41 -21 -3 -4 0 -8 7 -8 17 0
107 -62 107 -74 0 -6 4 -8 9 -4 5 3 16 -2 24 -10 9 -8 23 -15 31 -15 9 0 16
-4 16 -8 0 -5 23 -19 50 -31 29 -13 47 -27 44 -33 -4 -6 -2 -8 3 -5 12 8 103
-23 103 -35 0 -4 12 -8 26 -8 14 0 23 -3 21 -7 -3 -5 6 -9 19 -9 13 -1 32 -5
42 -10 25 -11 24 -11 60 -19 17 -4 32 -11 32 -15 0 -3 10 -6 22 -5 13 1 39 -2
58 -6 19 -4 48 -11 63 -14 15 -3 25 -10 22 -15 -3 -5 -1 -12 5 -15 6 -4 9 -1
8 6 -2 7 5 15 16 17 10 2 16 0 13 -5 -3 -4 16 -7 41 -6 26 0 50 -4 54 -10 6
-9 10 -8 17 2 5 7 14 11 20 7 15 -10 193 -12 209 -3 7 5 12 3 12 -5 0 -9 3 -9
10 2 9 13 10 13 10 0 0 -10 3 -11 8 -3 10 16 98 20 94 4 -1 -7 2 -10 8 -6 6 3
8 10 5 14 -4 8 134 37 163 34 6 0 12 4 12 9 0 6 8 4 17 -3 10 -9 14 -9 10 -2
-5 8 6 16 35 23 24 6 54 16 68 22 14 6 27 12 30 13 3 1 13 5 22 9 10 5 25 6
33 2 8 -3 14 0 12 7 -1 7 9 12 25 11 15 0 26 2 25 5 -1 4 1 6 4 6 3 0 13 6 22
14 14 11 20 11 35 0 15 -12 16 -12 5 1 -10 13 -8 18 8 28 11 7 24 10 28 7 5
-3 12 2 15 11 3 8 10 13 15 10 5 -4 11 -3 13 2 5 12 110 78 114 72 2 -3 11 5
20 18 9 13 22 21 30 18 8 -3 13 -2 11 2 -1 4 2 7 7 7 5 0 9 -30 10 -67 0 -36
4 -64 7 -62 3 2 6 -10 7 -27 0 -16 6 -55 13 -87 6 -31 12 -61 14 -67 1 -5 7
-29 14 -53 6 -23 9 -48 5 -54 -4 -7 -3 -8 4 -4 11 6 18 -20 13 -47 -1 -4 6
-15 15 -24 8 -9 13 -25 10 -35 -2 -11 -2 -17 1 -14 7 7 75 -141 76 -166 1 -9
4 -15 8 -13 6 4 33 -46 29 -54 -1 -2 2 -7 7 -10 5 -3 34 -44 65 -91 31 -47 64
-95 75 -107 10 -12 27 -32 38 -45 11 -12 19 -26 17 -30 -1 -5 3 -8 9 -8 5 0 7
-5 4 -10 -4 -6 -1 -9 7 -8 7 2 12 -3 10 -10 -1 -8 1 -11 6 -8 12 7 63 -50 54
-59 -4 -4 -2 -5 4 -3 16 4 76 -50 69 -62 -3 -5 0 -8 7 -5 7 3 31 -11 53 -31
22 -19 34 -32 26 -28 -9 5 -12 3 -7 -5 4 -6 12 -8 18 -5 6 4 13 3 17 -2 3 -5
15 -14 26 -20 11 -6 20 -16 20 -22 0 -6 4 -14 9 -19 5 -5 6 -2 1 6 -5 9 -3 12
6 9 8 -3 13 -11 11 -17 -1 -7 2 -10 8 -6 6 3 29 -7 53 -23 23 -15 57 -35 75
-43 18 -7 32 -18 32 -22 0 -5 4 -5 10 -2 9 6 14 -8 11 -28 -1 -5 3 -6 9 -2 6
3 8 11 5 16 -3 5 1 6 9 3 9 -3 16 -10 16 -15 0 -5 3 -8 8 -7 4 1 20 -2 35 -7
21 -5 26 -12 22 -24 -5 -12 -3 -13 5 -5 13 13 50 7 50 -7 0 -5 3 -8 8 -7 12 5
112 -25 112 -33 0 -4 9 -6 21 -4 16 3 19 0 15 -12 -5 -12 -4 -13 7 -5 13 11
47 10 65 -2 5 -3 35 -8 68 -11 32 -4 63 -10 69 -13 15 -11 455 -10 455 0 0 5
3 7 8 5 4 -3 16 -1 27 3 13 5 24 2 33 -9 9 -12 12 -12 10 -2 -2 8 9 17 25 22
19 5 25 4 20 -4 -5 -9 -3 -9 8 0 18 14 130 44 141 37 4 -3 8 -1 8 5 0 5 9 8
20 6 11 -2 18 0 15 6 -4 5 2 9 12 9 10 0 30 6 45 14 20 10 29 11 39 2 9 -8 10
-8 4 3 -6 11 -4 13 9 8 10 -4 15 -3 11 3 -3 6 6 15 22 20 15 6 44 19 64 30 20
11 39 17 43 13 3 -3 6 -2 6 4 0 17 32 25 42 11 6 -9 8 -7 6 7 -2 14 2 20 14
19 10 -1 16 2 13 6 -5 8 69 52 79 45 3 -3 4 -2 1 1 -5 7 104 93 119 94 4 0 5
-7 2 -16 -3 -9 -2 -12 5 -9 5 4 7 15 4 26 -6 18 4 24 28 20 5 -1 6 3 3 8 -8
13 45 49 64 44 12 -4 12 -2 2 5 -10 7 -3 19 29 50 23 23 46 42 51 42 5 0 6 4
3 10 -3 5 -2 10 3 10 5 0 20 15 33 34 13 19 27 32 31 30 4 -3 8 0 8 6 0 14 76
112 84 108 2 -2 8 1 13 6 5 5 3 6 -4 2 -18 -10 -16 9 2 24 8 7 15 16 15 20 0
17 68 108 76 102 4 -4 4 -1 0 5 -8 14 57 157 67 147 3 -3 3 3 0 15 -3 12 -1
21 4 21 5 0 10 10 10 22 1 13 7 24 12 26 5 2 7 10 4 18 -3 8 -1 14 4 14 5 0 9
8 9 18 1 9 13 62 27 117 30 114 33 131 43 223 10 83 11 295 2 382 -9 90 -45
258 -74 347 -13 40 -24 76 -24 78 0 3 41 25 90 49 50 24 97 49 105 56 8 7 15
10 15 6 0 -3 8 1 18 9 9 8 54 40 99 72 45 32 93 68 108 81 14 12 31 20 37 16
6 -4 8 -3 4 4 -8 14 22 44 37 35 7 -3 9 -3 6 1 -8 9 79 102 91 99 5 -2 7 4 4
12 -6 15 5 19 36 16 12 -2 13 0 1 7 -11 8 -10 14 5 36 19 25 42 37 28 14 -4
-7 -3 -8 4 -4 6 4 9 13 6 21 -3 8 7 27 23 42 16 15 30 33 32 38 11 30 14 34
24 28 5 -3 7 -2 4 4 -8 13 47 95 58 86 4 -5 5 -3 1 4 -8 14 14 64 25 57 5 -3
6 2 3 10 -3 9 -1 16 6 16 6 0 9 4 5 9 -3 5 0 15 7 23 7 7 14 20 16 28 2 8 10
29 18 45 9 17 17 39 20 50 2 11 8 21 14 23 6 2 8 7 5 12 -3 5 0 21 6 37 16 37
16 39 31 98 6 28 14 52 17 55 4 3 7 21 9 40 3 34 9 75 12 75 1 0 3 29 6 65 4
57 9 94 14 110 3 9 -1 194 -4 235 -6 65 -17 149 -21 165 -2 8 -7 29 -9 45 -58
339 -296 738 -577 966 -23 19 -47 39 -53 45 -7 7 -48 36 -92 66 -62 41 -78 57
-68 65 6 7 15 9 18 5 4 -3 4 1 0 11 -3 9 -2 17 3 17 4 0 17 16 27 35 10 19 23
32 28 29 5 -3 8 -2 7 3 -4 13 23 63 33 63 5 0 7 4 3 9 -3 5 -1 13 5 16 6 4 18
24 27 46 13 34 17 38 32 27 14 -11 14 -11 4 2 -10 13 -7 27 14 70 15 30 28 60
30 65 3 14 43 127 50 145 3 8 7 20 9 25 2 9 28 114 39 155 2 8 4 25 4 38 1 16
5 21 14 16 9 -6 9 -5 0 8 -7 8 -11 17 -9 19 20 19 24 343 7 464 -19 132 -57
292 -86 360 -7 17 -16 41 -20 55 -11 37 -89 190 -136 267 -106 173 -263 344
-429 469 -160 119 -308 197 -497 260 -101 33 -116 42 -174 96 -72 68 -220 170
-273 189 -20 7 -36 16 -36 20 0 3 -12 9 -27 12 -36 8 -59 24 -50 33 4 4 12 3
19 -4 8 -8 17 -8 31 -1 15 8 18 8 12 -1 -6 -9 -2 -9 14 -1 11 7 22 9 22 6 1
-3 2 -9 3 -14 0 -5 4 -13 8 -17 4 -3 6 2 3 14 -3 16 3 21 28 25 22 3 36 -1 44
-12 12 -14 12 -14 6 4 -6 18 -5 18 10 6 15 -12 17 -12 12 1 -5 11 2 17 24 21
35 7 49 11 73 21 9 4 22 4 29 0 7 -4 9 -3 6 3 -4 6 5 15 18 21 19 9 25 9 26
-1 0 -6 4 -2 10 11 5 13 13 20 19 17 5 -3 10 -1 10 4 0 6 7 11 15 11 8 0 15 3
15 8 0 4 12 15 26 25 21 16 28 17 42 5 15 -11 15 -11 5 2 -10 13 -6 21 24 45
20 17 45 40 56 53 12 12 26 22 33 22 6 0 15 7 18 16 3 8 11 12 17 8 8 -4 9 -3
5 5 -5 7 3 22 19 37 14 13 22 24 18 24 -4 0 -1 6 7 13 8 7 24 30 35 52 11 22
24 43 28 46 5 3 8 9 8 13 -1 3 -1 7 0 9 0 1 2 11 4 21 2 10 7 22 12 25 4 3 9
15 11 26 2 11 5 39 9 62 3 24 8 41 12 39 8 -5 6 173 -2 199 -4 11 -9 34 -11
50 -9 71 -67 203 -131 300 -22 33 -93 114 -160 180 -100 100 -135 128 -210
168 -137 73 -345 145 -464 162 -14 2 -42 6 -61 9 -156 23 -330 27 -445 9z
m-441 -1595 c-6 -10 -4 -11 7 0 9 8 49 12 124 12 75 0 105 -3 95 -10 -8 -5
-10 -10 -4 -10 5 0 15 5 22 12 9 9 12 9 13 -2 1 -8 1 -19 0 -23 -1 -5 3 -6 8
-2 6 3 8 12 5 20 -4 11 0 13 18 9 12 -4 40 -6 61 -7 26 0 37 -5 38 -16 0 -11
2 -12 6 -3 2 6 16 12 29 12 13 0 24 -6 25 -12 0 -10 2 -10 5 -1 4 9 13 9 30 2
14 -5 37 -9 51 -9 23 0 24 -2 12 -17 -11 -15 -10 -14 9 1 13 12 22 14 22 7 0
-7 5 -9 10 -6 6 3 10 2 10 -3 0 -5 14 -6 31 -4 24 4 30 2 24 -8 -5 -8 -4 -11
1 -7 9 5 138 -24 169 -38 10 -4 -70 3 -115 11 -30 5 -336 5 -400 0 -91 -7
-251 -33 -350 -57 -47 -11 -92 -22 -100 -24 -37 -8 -203 -70 -285 -105 -109
-47 -204 -97 -308 -162 -43 -26 -80 -48 -82 -48 -9 0 21 77 35 88 8 8 9 11 3
7 -19 -9 -15 16 5 32 9 8 11 12 5 8 -7 -3 -13 -1 -13 4 0 6 4 11 9 11 5 0 11
10 14 21 4 14 11 20 21 16 9 -4 13 -1 10 6 -6 18 63 90 79 81 6 -4 9 -4 5 1
-10 11 114 106 130 100 7 -3 11 -1 7 4 -7 13 101 65 116 55 8 -5 9 -3 4 6 -6
10 -4 12 8 7 10 -3 17 -2 17 3 0 6 7 10 16 10 9 0 13 -5 9 -12 -4 -7 0 -6 7 3
13 16 23 18 98 22 17 1 30 4 30 7 0 14 58 6 76 -11 16 -15 21 -16 21 -5 0 8
-3 15 -6 14 -15 -1 -22 3 -18 10 3 4 35 8 72 10 51 2 65 -1 59 -10z m-1087
-480 c23 -2 44 -6 48 -10 4 -4 -1 -40 -10 -80 -9 -40 -18 -89 -21 -108 -2 -19
-6 -55 -10 -80 -15 -105 -7 -353 16 -484 6 -33 8 -66 5 -75 -3 -8 -3 -12 1 -8
5 4 13 -14 20 -40 7 -26 11 -50 9 -51 -2 -2 -32 16 -67 41 -175 125 -447 249
-598 273 -19 3 -38 8 -41 10 -22 13 -249 37 -355 38 l-82 0 32 40 c49 64 229
245 238 240 4 -3 8 2 8 11 0 11 5 15 16 11 8 -3 13 -2 9 3 -3 5 14 24 37 43
24 18 52 41 63 51 10 9 25 15 33 12 7 -2 10 0 7 5 -8 12 71 64 84 55 6 -3 9 0
6 7 -7 17 69 53 86 42 7 -4 9 -3 6 3 -9 14 42 32 81 29 17 -1 28 2 25 7 -3 5
0 7 8 5 8 -3 13 -11 11 -17 -1 -7 2 -10 8 -6 6 3 8 10 5 15 -3 5 0 12 6 16 6
3 15 0 20 -7 6 -9 9 -10 9 -2 0 6 8 13 18 16 16 4 182 1 269 -5z m273 -71 c0
7 6 10 13 8 6 -2 39 -7 72 -10 54 -5 91 -10 105 -15 3 -1 13 -1 24 0 10 1 15
-3 12 -8 -4 -6 3 -8 16 -4 14 3 19 1 14 -6 -4 -7 -2 -10 6 -7 16 6 131 -38
123 -47 -4 -3 0 -6 7 -5 36 1 50 -4 45 -17 -4 -10 0 -12 14 -9 11 3 19 0 19
-6 0 -7 5 -9 12 -5 7 5 9 2 5 -9 -4 -10 -2 -14 7 -11 14 6 88 -55 81 -66 -3
-5 0 -12 6 -16 8 -5 10 -3 4 7 -7 13 9 -4 97 -97 l30 -32 -29 -28 c-229 -225
-435 -638 -467 -939 -1 -14 -5 -28 -8 -31 -9 -8 -115 215 -161 341 -53 143
-89 280 -101 385 -3 25 -8 56 -11 70 -13 57 -7 314 10 400 3 13 7 42 11 64 3
22 10 48 14 57 5 9 7 19 4 22 -3 3 -3 11 1 17 6 9 10 9 16 -1 6 -10 9 -10 9
-2z m446 -2677 c-7 -203 -15 -302 -25 -310 -3 -3 -6 -23 -7 -45 -1 -40 -9
-107 -19 -155 -3 -14 -7 -41 -10 -60 -3 -27 -56 -290 -80 -400 -5 -23 -26
-113 -30 -130 -3 -8 -11 -44 -20 -80 -8 -36 -18 -72 -22 -80 -3 -8 -6 -18 -5
-21 1 -4 -8 -38 -19 -75 -11 -38 -22 -77 -24 -88 -3 -10 -6 -20 -8 -22 -2 -2
-25 30 -51 71 -89 140 -239 307 -370 411 -40 31 -43 61 -5 49 11 -4 19 -2 19
5 0 6 -4 8 -10 5 -5 -3 -10 -2 -10 2 0 13 40 34 50 28 6 -4 10 -1 10 5 0 6 14
25 30 42 17 16 30 27 30 24 0 -5 84 80 119 120 7 9 20 13 30 9 12 -5 13 -3 4
6 -8 8 -5 18 14 40 14 16 30 26 36 22 6 -3 7 -1 3 5 -8 14 6 44 20 43 5 -1 9
4 9 9 0 6 6 14 13 19 8 5 14 12 14 17 0 5 4 8 9 6 5 -1 8 1 8 5 -3 21 2 33 13
27 7 -5 8 -3 3 6 -5 8 -1 18 10 27 11 7 16 13 12 13 -4 0 7 22 23 48 28 46
122 241 121 252 -1 20 13 49 22 43 6 -3 7 -1 3 5 -7 12 13 92 23 92 3 0 7 19
8 42 2 23 6 44 10 47 5 3 8 14 9 24 3 66 5 78 12 73 4 -2 6 12 5 32 l-4 37 17
-30 c15 -25 16 -52 10 -215z m221 -84 c-4 -10 -1 -13 9 -9 8 3 14 -1 14 -11 0
-9 3 -16 8 -16 14 0 117 -101 114 -111 -1 -6 3 -9 10 -7 7 3 33 -10 57 -29 24
-18 48 -33 53 -33 5 0 7 -4 4 -8 -2 -4 7 -13 22 -20 15 -7 38 -21 52 -31 l25
-20 -22 -23 c-41 -45 -126 -184 -178 -293 -104 -216 -159 -430 -169 -649 -2
-46 -7 -89 -11 -95 -3 -6 -2 -11 2 -11 12 0 10 -74 -2 -82 -7 -5 -6 -8 1 -8 5
0 11 -20 13 -44 1 -25 4 -55 7 -68 13 -66 22 -153 17 -162 -3 -6 -2 -8 2 -3 9
8 47 -122 39 -134 -2 -4 0 -9 6 -11 5 -1 11 -14 14 -28 2 -14 5 -27 6 -30 2
-3 2 -8 1 -12 0 -5 5 -8 11 -8 7 0 -32 -24 -87 -51 -55 -28 -140 -78 -189
-111 -49 -32 -90 -58 -91 -56 -2 2 -6 40 -9 85 -4 45 -9 92 -12 105 -2 13 -7
37 -9 53 -3 17 -12 57 -20 90 -9 33 -17 69 -20 79 -2 10 -9 34 -15 52 -17 49
1 141 24 127 8 -5 8 -3 0 8 -12 16 7 85 20 72 4 -4 4 0 0 10 -3 9 -3 25 2 35
11 25 10 23 19 70 4 23 12 42 18 42 6 0 8 2 5 5 -3 3 3 40 14 83 10 42 20 84
22 92 2 8 10 35 17 60 6 25 13 52 15 60 1 8 5 29 9 45 4 17 8 36 8 43 0 6 3
12 6 12 3 0 7 16 9 36 1 20 5 41 9 48 4 6 8 22 9 36 1 14 2 33 3 43 0 10 5 16
9 13 4 -3 8 5 8 17 -1 38 26 187 33 183 3 -2 6 8 6 22 1 27 11 114 20 162 2
14 6 38 9 54 3 16 8 59 12 95 11 108 12 116 14 116 2 0 5 41 9 113 0 12 6 22
12 22 6 0 9 -7 6 -14z"/>
<path d="M5090 8546 c0 -2 7 -7 16 -10 8 -3 12 -2 9 4 -6 10 -25 14 -25 6z"/>
<path d="M5725 8540 c-3 -6 1 -7 9 -4 18 7 21 14 7 14 -6 0 -13 -4 -16 -10z"/>
<path d="M4130 8079 c0 -5 5 -7 10 -4 6 3 10 8 10 11 0 2 -4 4 -10 4 -5 0 -10
-5 -10 -11z"/>
<path d="M3726 8022 c-3 -5 1 -9 9 -9 8 0 12 4 9 9 -3 4 -7 8 -9 8 -2 0 -6 -4
-9 -8z"/>
<path d="M5396 5038 c3 -5 10 -6 15 -3 13 9 11 12 -6 12 -8 0 -12 -4 -9 -9z"/>
<path d="M6659 8433 c-13 -16 -12 -17 4 -4 9 7 17 15 17 17 0 8 -8 3 -21 -13z"/>
<path d="M2215 1581 c-3 -5 -2 -12 3 -15 5 -3 9 1 9 9 0 17 -3 19 -12 6z"/>
<path d="M2360 1486 c0 -2 8 -10 18 -17 15 -13 16 -12 3 4 -13 16 -21 21 -21
13z"/>
<path d="M2493 1425 c0 -8 4 -12 9 -9 5 3 6 10 3 15 -9 13 -12 11 -12 -6z"/>
<path d="M3765 1380 c-3 -6 1 -7 9 -4 18 7 21 14 7 14 -6 0 -13 -4 -16 -10z"/>
<path d="M3090 1280 c0 -5 5 -10 10 -10 6 0 10 5 10 10 0 6 -4 10 -10 10 -5 0
-10 -4 -10 -10z"/>
<path d="M4935 300 c-3 -6 1 -7 9 -4 18 7 21 14 7 14 -6 0 -13 -4 -16 -10z"/>
<path d="M6706 162 c-3 -5 1 -9 9 -9 8 0 12 4 9 9 -3 4 -7 8 -9 8 -2 0 -6 -4
-9 -8z"/>
<path d="M5429 43 c-13 -16 -12 -17 4 -4 9 7 17 15 17 17 0 8 -8 3 -21 -13z"/>
<path d="M5525 20 c-3 -6 1 -7 9 -4 18 7 21 14 7 14 -6 0 -13 -4 -16 -10z"/>
</g>
</svg>
